<svg width="33" height="32" viewBox="0 0 33 32" fill="none" xmlns="http://www.w3.org/2000/svg">
<path d="M18.7 26.6667H14.3" stroke="#222222" stroke-width="1.5" stroke-linecap="round" stroke-linejoin="round"/>
<path fill-rule="evenodd" clip-rule="evenodd" d="M23.375 13.3758V13.3332V13.3332C23.375 9.65184 20.2964 6.6665 16.5 6.6665V6.6665C12.7036 6.6665 9.625 9.65184 9.625 13.3332V13.3332V13.3758V16.6718C9.625 17.1038 9.37338 17.4972 8.976 17.6905L8.28437 18.0252C7.42087 18.4452 6.875 19.3012 6.875 20.2372V20.2372C6.875 21.6025 8.01625 22.7092 9.42425 22.7092H23.5757C24.9837 22.7092 26.125 21.6025 26.125 20.2372V20.2372C26.125 19.3012 25.5791 18.4452 24.7156 18.0265L24.024 17.6918C23.6266 17.4972 23.375 17.1038 23.375 16.6718V13.3758Z" stroke="#222222" stroke-width="1.5" stroke-linecap="round" stroke-linejoin="round"/>
</svg>
