<svg width="24" height="24" viewBox="0 0 24 24" fill="none" xmlns="http://www.w3.org/2000/svg">
<path d="M20.0002 20.83L17.7402 18.57" stroke="#222222" stroke-width="1.5" stroke-linecap="round" stroke-linejoin="round"/>
<path d="M6.26 18.57L4 20.83" stroke="#222222" stroke-width="1.5" stroke-linecap="round" stroke-linejoin="round"/>
<path d="M8.93925 5.611C13.0212 3.92 17.7002 5.858 19.3912 9.94C21.0822 14.022 19.1432 18.701 15.0622 20.391C10.9802 22.082 6.30125 20.143 4.61125 16.062C2.92025 11.981 4.85825 7.301 8.93925 5.611" stroke="#222222" stroke-width="1.5" stroke-linecap="round" stroke-linejoin="round"/>
<path d="M11.75 9.43201V13.567L15 15.549" stroke="#222222" stroke-width="1.5" stroke-linecap="round" stroke-linejoin="round"/>
<path d="M7.5144 3.1C6.3174 2.76 4.9804 3.045 4.0384 3.987C3.2274 4.799 2.9054 5.905 3.0454 6.962" stroke="#222222" stroke-width="1.5" stroke-linecap="round" stroke-linejoin="round"/>
<path d="M16.499 3.1C17.696 2.76 19.032 3.045 19.974 3.987C20.786 4.799 21.108 5.905 20.968 6.962" stroke="#222222" stroke-width="1.5" stroke-linecap="round" stroke-linejoin="round"/>
</svg>
