<svg width="24" height="24" viewBox="0 0 24 24" fill="none" xmlns="http://www.w3.org/2000/svg">
<path d="M11.0911 4.06177H4.33953C3.82793 4.06177 3.33728 4.26501 2.97552 4.62677C2.61376 4.98853 2.41052 5.47918 2.41052 5.99079V19.4939C2.41052 20.0055 2.61376 20.4961 2.97552 20.8579C3.33728 21.2196 3.82793 21.4229 4.33953 21.4229H17.8426C18.3542 21.4229 18.8449 21.2196 19.2066 20.8579C19.5684 20.4961 19.7716 20.0055 19.7716 19.4939V12.7423M18.3249 2.61501C18.7086 2.23131 19.229 2.01575 19.7716 2.01575C20.3143 2.01575 20.8347 2.23131 21.2184 2.61501C21.6021 2.99872 21.8177 3.51913 21.8177 4.06177C21.8177 4.60441 21.6021 5.12483 21.2184 5.50853L12.0556 14.6713L8.19756 15.6358L9.16207 11.7778L18.3249 2.61501Z" stroke="white" stroke-width="1.5" stroke-linecap="round" stroke-linejoin="round"/>
</svg>
