<svg width="20" height="20" viewBox="0 0 20 20" fill="none" xmlns="http://www.w3.org/2000/svg">
<path d="M5.83362 2.70874H14.1666C15.6084 2.70874 16.689 3.1217 17.4088 3.84155C18.1286 4.5614 18.5416 5.64211 18.5416 7.08374V12.9167C18.5416 14.3585 18.1287 15.4391 17.4088 16.1589C16.689 16.8788 15.6084 17.2917 14.1666 17.2917H5.83362C4.39198 17.2917 3.31128 16.8787 2.59143 16.1589C1.87158 15.4391 1.45862 14.3585 1.45862 12.9167V7.08374C1.45862 5.642 1.87158 4.5614 2.59143 3.84155C3.31128 3.1217 4.39188 2.70874 5.83362 2.70874ZM5.83362 3.12476C4.58071 3.12476 3.56833 3.4291 2.87366 4.12378C2.17898 4.81846 1.87463 5.83083 1.87463 7.08374V12.9167C1.87463 14.1695 2.17921 15.1811 2.87366 15.8757C3.56833 16.5704 4.58071 16.8748 5.83362 16.8748H14.1666C15.4195 16.8748 16.4309 16.5704 17.1256 15.8757C17.8203 15.1811 18.1246 14.1697 18.1246 12.9167V7.08374C18.1246 5.83083 17.8203 4.81846 17.1256 4.12378C16.4309 3.42933 15.4193 3.12476 14.1666 3.12476H5.83362Z" fill="#222222" stroke="#222222" stroke-width="0.833333"/>
<path d="M14.0731 7.30859C14.1587 7.26489 14.2635 7.28939 14.3173 7.36035L14.3221 7.36523L14.3495 7.40625C14.3934 7.49176 14.3696 7.5975 14.2987 7.65137H14.2977L14.2899 7.6582L11.6815 9.74121L11.6757 9.74609C11.2289 10.116 10.6192 10.3086 9.99988 10.3086C9.38131 10.3086 8.77001 10.1163 8.31335 9.74414L8.30945 9.74121L5.70203 7.6582C5.60697 7.5791 5.60113 7.44962 5.66492 7.37109C5.73391 7.28618 5.84265 7.27022 5.92175 7.31055L5.95691 7.33398L8.56433 9.41699C8.96817 9.74096 9.49273 9.88965 9.99597 9.88965C10.4992 9.88959 11.0228 9.74005 11.4266 9.41602L14.035 7.33398L14.0731 7.30859Z" fill="#222222" stroke="#222222" stroke-width="0.833333"/>
</svg>
