<svg width="24" height="27" viewBox="0 0 24 27" fill="none" xmlns="http://www.w3.org/2000/svg">
<path d="M20 13.3717V6.32407C20 5.95025 19.8595 5.59173 19.6095 5.32739C19.3594 5.06305 19.0203 4.91455 18.6667 4.91455H5.33333C4.97971 4.91455 4.64057 5.06305 4.39052 5.32739C4.14048 5.59173 4 5.95025 4 6.32407V20.4193C4 20.7931 4.14048 21.1517 4.39052 21.416C4.64057 21.6803 4.97971 21.8288 5.33333 21.8288H12" stroke="#F75D37" stroke-width="1.5" stroke-linecap="round" stroke-linejoin="round"/>
<path d="M15.5556 19.9496C16.2628 19.9496 16.9411 19.6526 17.4412 19.1239C17.9413 18.5953 18.2223 17.8782 18.2223 17.1306C18.2223 16.3829 17.9413 15.6659 17.4412 15.1372C16.9411 14.6085 16.2628 14.3115 15.5556 14.3115C14.8483 14.3115 14.1701 14.6085 13.67 15.1372C13.1699 15.6659 12.8889 16.3829 12.8889 17.1306C12.8889 17.8782 13.1699 18.5953 13.67 19.1239C14.1701 19.6526 14.8483 19.9496 15.5556 19.9496Z" stroke="#F75D37" stroke-width="1.5"/>
<path d="M17.7778 19.0096L20 20.889M7.55554 9.61279H16.4444M7.55554 13.3715H11.1111" stroke="#F75D37" stroke-width="1.5" stroke-linecap="round" stroke-linejoin="round"/>
</svg>
