<svg width="24" height="26" viewBox="0 0 24 26" fill="none" xmlns="http://www.w3.org/2000/svg">
<path d="M11.2464 2.91226C13.1845 2.75072 15.1234 3.2151 16.8065 4.24394C18.4895 5.27279 19.8374 6.8176 20.6718 8.67399C21.5062 10.5304 21.7878 12.6108 21.4792 14.6401C21.1707 16.6693 20.2866 18.5517 18.9439 20.0381C17.6012 21.5246 15.8633 22.545 13.96 22.9644C12.0567 23.3839 10.0778 23.1825 8.28518 22.387C6.49252 21.5915 4.97059 20.2394 3.92077 18.5095C2.87095 16.7796 2.34271 14.7535 2.40596 12.6993C2.41312 12.447 2.51481 12.208 2.68866 12.0349C2.8625 11.8618 3.09427 11.7688 3.33296 11.7764C3.57166 11.784 3.79773 11.8915 3.96145 12.0753C4.12517 12.259 4.21312 12.504 4.20596 12.7564C4.14515 14.7009 4.73672 16.6056 5.87608 18.1335C7.01543 19.6615 8.62917 20.7143 10.4319 21.1058C12.2347 21.4974 14.1104 21.2024 15.7273 20.2731C17.3442 19.3438 18.5982 17.84 19.2676 16.0277C19.9369 14.2153 19.9785 12.2111 19.3849 10.3695C18.7913 8.52783 17.6009 6.96739 16.024 5.96408C14.4472 4.96076 12.5855 4.5792 10.7683 4.88687C8.95099 5.19453 7.29516 6.1716 6.09356 7.6453L5.84876 7.95991H8.10116L8.22356 7.97005C8.43898 8.00139 8.63638 8.11411 8.77927 8.28737C8.92216 8.46064 9.00089 8.68273 9.00089 8.9126C9.00089 9.14247 8.92216 9.36457 8.77927 9.53784C8.63638 9.7111 8.43898 9.82382 8.22356 9.85515L8.10116 9.86403H3.90356L3.78116 9.85515C3.58658 9.82691 3.40608 9.73215 3.2672 9.58533C3.12832 9.43851 3.03868 9.2477 3.01196 9.042L3.00356 8.9126V3.83832L3.01196 3.70892C3.03868 3.50322 3.12832 3.31241 3.2672 3.16559C3.40608 3.01877 3.58658 2.92401 3.78116 2.89577L3.90356 2.88689L4.02596 2.89577C4.22054 2.92401 4.40104 3.01877 4.53992 3.16559C4.67881 3.31241 4.76844 3.50322 4.79516 3.70892L4.80356 3.83832L4.80236 6.31584C6.44942 4.33806 8.76126 3.11618 11.2464 2.91226ZM11.7 7.95991L11.8224 7.96879C12.0169 7.99703 12.1974 8.09179 12.3363 8.23861C12.4752 8.38543 12.5648 8.57624 12.5916 8.78194L12.6 8.91133V13.0278L14.7 13.0291L14.8224 13.038C15.0387 13.0683 15.2372 13.1807 15.381 13.3542C15.5248 13.5277 15.6041 13.7505 15.6041 13.9812C15.6041 14.2119 15.5248 14.4347 15.381 14.6082C15.2372 14.7817 15.0387 14.8941 14.8224 14.9244L14.7 14.932H11.7L11.5776 14.9244C11.3828 14.8961 11.2022 14.8011 11.0633 14.654C10.9244 14.507 10.8348 14.3159 10.8084 14.1099L10.8 13.9805V8.91133L10.8084 8.78194C10.8351 8.57624 10.9247 8.38543 11.0636 8.23861C11.2025 8.09179 11.383 7.99703 11.5776 7.96879L11.7 7.95991Z" fill="#F75D37"/>
</svg>
