<svg width="20" height="20" viewBox="0 0 20 20" fill="none" xmlns="http://www.w3.org/2000/svg">
<path d="M9.99988 1.45874C12.0856 1.45884 13.7981 3.10544 13.9032 5.16577L13.9081 5.36694C13.8997 7.4816 12.2493 9.19179 10.1581 9.26636H10.0858C10.029 9.26016 9.9712 9.26172 9.91687 9.26636C7.72891 9.19218 6.09178 7.4769 6.09167 5.36694C6.09167 3.21373 7.84666 1.45874 9.99988 1.45874ZM9.99988 1.87476C8.07809 1.87476 6.50769 3.44516 6.50769 5.36694C6.50779 7.25804 7.98587 8.78298 9.86804 8.84937L9.91687 8.85132L9.95007 8.84448C9.95867 8.844 9.97271 8.84351 9.99109 8.84351C10.0281 8.84351 10.0743 8.84502 10.118 8.84839L10.1434 8.85034L10.1688 8.84937C12.0259 8.76407 13.4816 7.23859 13.4911 5.3689V5.36694C13.4911 3.44522 11.9216 1.87486 9.99988 1.87476Z" fill="#222222" stroke="#222222" stroke-width="0.833333"/>
<path d="M10.1413 18.7916C8.50801 18.7916 6.86634 18.3749 5.62467 17.5416C4.46634 16.7749 3.83301 15.7249 3.83301 14.5833C3.83301 13.4416 4.46634 12.3833 5.62467 11.6083C8.12467 9.94992 12.1747 9.94992 14.658 11.6083C15.808 12.3749 16.4497 13.4249 16.4497 14.5666C16.4497 15.7083 15.8163 16.7666 14.658 17.5416C13.408 18.3749 11.7747 18.7916 10.1413 18.7916ZM6.31634 12.6583C5.51634 13.1916 5.08301 13.8749 5.08301 14.5916C5.08301 15.2999 5.52467 15.9833 6.31634 16.5083C8.39134 17.8999 11.8913 17.8999 13.9663 16.5083C14.7663 15.9749 15.1997 15.2916 15.1997 14.5749C15.1997 13.8666 14.758 13.1833 13.9663 12.6583C11.8913 11.2749 8.39134 11.2749 6.31634 12.6583Z" fill="#222222"/>
</svg>
